<svg width="1280" height="100" viewBox="0 0 1280 100" fill="none" xmlns="http://www.w3.org/2000/svg">
<g filter="url(#filter0_d_1273_9)">
<rect width="1280" height="72" fill="#FEFEFE"/>
</g>
<path d="M824.526 35.1006V36.7002H819.331V35.1006H824.526ZM819.939 31.0469V41H817.889V31.0469H819.939ZM825.989 31.0469V41H823.945V31.0469H825.989ZM827.336 37.377V37.2334C827.336 36.6911 827.413 36.1921 827.568 35.7363C827.723 35.276 827.949 34.8773 828.245 34.54C828.541 34.2028 828.906 33.9408 829.339 33.7539C829.772 33.5625 830.269 33.4668 830.829 33.4668C831.39 33.4668 831.889 33.5625 832.326 33.7539C832.764 33.9408 833.131 34.2028 833.427 34.54C833.728 34.8773 833.955 35.276 834.11 35.7363C834.265 36.1921 834.343 36.6911 834.343 37.2334V37.377C834.343 37.9147 834.265 38.4137 834.11 38.874C833.955 39.3298 833.728 39.7285 833.427 40.0703C833.131 40.4076 832.766 40.6696 832.333 40.8564C831.9 41.0433 831.403 41.1367 830.843 41.1367C830.282 41.1367 829.783 41.0433 829.346 40.8564C828.913 40.6696 828.546 40.4076 828.245 40.0703C827.949 39.7285 827.723 39.3298 827.568 38.874C827.413 38.4137 827.336 37.9147 827.336 37.377ZM829.305 37.2334V37.377C829.305 37.6868 829.332 37.9762 829.387 38.2451C829.441 38.514 829.528 38.751 829.646 38.9561C829.77 39.1566 829.929 39.3138 830.125 39.4277C830.321 39.5417 830.56 39.5986 830.843 39.5986C831.116 39.5986 831.351 39.5417 831.547 39.4277C831.743 39.3138 831.9 39.1566 832.019 38.9561C832.137 38.751 832.224 38.514 832.278 38.2451C832.338 37.9762 832.367 37.6868 832.367 37.377V37.2334C832.367 36.9326 832.338 36.6501 832.278 36.3857C832.224 36.1169 832.135 35.8799 832.012 35.6748C831.893 35.4652 831.736 35.3011 831.54 35.1826C831.344 35.0641 831.107 35.0049 830.829 35.0049C830.551 35.0049 830.314 35.0641 830.118 35.1826C829.927 35.3011 829.77 35.4652 829.646 35.6748C829.528 35.8799 829.441 36.1169 829.387 36.3857C829.332 36.6501 829.305 36.9326 829.305 37.2334ZM837.521 35.1348V41H835.546V33.6035H837.398L837.521 35.1348ZM837.248 37.042H836.701C836.701 36.527 836.763 36.0531 836.886 35.6201C837.013 35.1826 837.198 34.8044 837.439 34.4854C837.686 34.1618 837.989 33.9111 838.349 33.7334C838.709 33.5557 839.126 33.4668 839.6 33.4668C839.928 33.4668 840.229 33.5169 840.502 33.6172C840.775 33.7129 841.01 33.8656 841.206 34.0752C841.407 34.2803 841.562 34.5492 841.671 34.8818C841.78 35.21 841.835 35.6042 841.835 36.0645V41H839.866V36.2832C839.866 35.946 839.821 35.6862 839.729 35.5039C839.638 35.3216 839.508 35.194 839.34 35.1211C839.176 35.0482 838.978 35.0117 838.745 35.0117C838.49 35.0117 838.267 35.0641 838.075 35.1689C837.888 35.2738 837.733 35.4196 837.61 35.6064C837.487 35.7887 837.396 36.0029 837.337 36.249C837.278 36.4951 837.248 36.7594 837.248 37.042ZM841.65 36.8164L840.946 36.9053C840.946 36.4222 841.006 35.9733 841.124 35.5586C841.247 35.1439 841.427 34.7793 841.664 34.4648C841.906 34.1504 842.204 33.9066 842.56 33.7334C842.915 33.5557 843.325 33.4668 843.79 33.4668C844.146 33.4668 844.469 33.5192 844.761 33.624C845.052 33.7243 845.301 33.8861 845.506 34.1094C845.715 34.3281 845.875 34.6152 845.984 34.9707C846.098 35.3262 846.155 35.7614 846.155 36.2764V41H844.18V36.2764C844.18 35.9346 844.134 35.6748 844.043 35.4971C843.956 35.3148 843.829 35.1895 843.66 35.1211C843.496 35.0482 843.3 35.0117 843.072 35.0117C842.835 35.0117 842.628 35.0596 842.45 35.1553C842.272 35.2464 842.124 35.374 842.006 35.5381C841.887 35.7021 841.799 35.8936 841.739 36.1123C841.68 36.3265 841.65 36.5612 841.65 36.8164ZM851.084 41.1367C850.51 41.1367 849.995 41.0456 849.539 40.8633C849.083 40.6764 848.696 40.4189 848.377 40.0908C848.062 39.7627 847.821 39.3822 847.652 38.9492C847.484 38.5117 847.399 38.0469 847.399 37.5547V37.2812C847.399 36.7207 847.479 36.208 847.639 35.7432C847.798 35.2783 848.026 34.875 848.322 34.5332C848.623 34.1914 848.988 33.9294 849.416 33.7471C849.844 33.5602 850.327 33.4668 850.865 33.4668C851.389 33.4668 851.854 33.5534 852.26 33.7266C852.665 33.8997 853.005 34.1458 853.278 34.4648C853.556 34.7839 853.766 35.1667 853.907 35.6133C854.049 36.0553 854.119 36.5475 854.119 37.0898V37.9102H848.24V36.5977H852.185V36.4473C852.185 36.1738 852.134 35.93 852.034 35.7158C851.938 35.4971 851.793 35.3239 851.597 35.1963C851.401 35.0687 851.15 35.0049 850.845 35.0049C850.585 35.0049 850.362 35.0618 850.175 35.1758C849.988 35.2897 849.835 35.4492 849.717 35.6543C849.603 35.8594 849.516 36.1009 849.457 36.3789C849.402 36.6523 849.375 36.9531 849.375 37.2812V37.5547C849.375 37.8509 849.416 38.1243 849.498 38.375C849.585 38.6257 849.705 38.8421 849.86 39.0244C850.02 39.2067 850.211 39.348 850.435 39.4482C850.662 39.5485 850.92 39.5986 851.207 39.5986C851.562 39.5986 851.893 39.5303 852.198 39.3936C852.508 39.2523 852.775 39.0404 852.998 38.7578L853.955 39.7969C853.8 40.0202 853.588 40.2344 853.319 40.4395C853.055 40.6445 852.736 40.8132 852.362 40.9453C851.989 41.0729 851.562 41.1367 851.084 41.1367Z" fill="#BBF330"/>
<path d="M817 42.3672H854.475V43.0508H817V42.3672Z" fill="#BBF330"/>
<path d="M887.84 31.9287L884.545 41H883.198L886.992 31.0469H887.86L887.84 31.9287ZM890.602 41L887.3 31.9287L887.279 31.0469H888.147L891.955 41H890.602ZM890.431 37.3154V38.3955H884.839V37.3154H890.431ZM893.09 30.5H894.361V39.5645L894.252 41H893.09V30.5ZM899.358 37.2402V37.3838C899.358 37.9215 899.295 38.4206 899.167 38.8809C899.039 39.3366 898.853 39.7331 898.606 40.0703C898.36 40.4076 898.06 40.6696 897.704 40.8564C897.349 41.0433 896.941 41.1367 896.48 41.1367C896.011 41.1367 895.599 41.057 895.243 40.8975C894.892 40.7334 894.596 40.4987 894.354 40.1934C894.113 39.888 893.919 39.5189 893.773 39.0859C893.632 38.653 893.534 38.1654 893.479 37.623V36.9941C893.534 36.4473 893.632 35.9574 893.773 35.5244C893.919 35.0915 894.113 34.7223 894.354 34.417C894.596 34.1071 894.892 33.8724 895.243 33.7129C895.594 33.5488 896.002 33.4668 896.467 33.4668C896.932 33.4668 897.344 33.5579 897.704 33.7402C898.064 33.918 898.365 34.1732 898.606 34.5059C898.853 34.8385 899.039 35.2373 899.167 35.7021C899.295 36.1624 899.358 36.6751 899.358 37.2402ZM898.087 37.3838V37.2402C898.087 36.8711 898.053 36.5247 897.984 36.2012C897.916 35.873 897.807 35.5859 897.656 35.3398C897.506 35.0892 897.308 34.8932 897.062 34.752C896.815 34.6061 896.512 34.5332 896.152 34.5332C895.833 34.5332 895.555 34.5879 895.318 34.6973C895.086 34.8066 894.888 34.9548 894.724 35.1416C894.56 35.3239 894.425 35.5335 894.32 35.7705C894.22 36.0029 894.145 36.2445 894.095 36.4951V38.1426C894.168 38.4616 894.286 38.7692 894.45 39.0654C894.619 39.3571 894.842 39.5964 895.12 39.7832C895.403 39.9701 895.751 40.0635 896.166 40.0635C896.508 40.0635 896.799 39.9951 897.041 39.8584C897.287 39.7171 897.485 39.5234 897.636 39.2773C897.791 39.0312 897.905 38.7464 897.978 38.4229C898.05 38.0993 898.087 37.7529 898.087 37.3838ZM900.623 37.3838V37.2266C900.623 36.6934 900.701 36.1989 900.855 35.7432C901.01 35.2829 901.234 34.8841 901.525 34.5469C901.817 34.2051 902.17 33.9408 902.585 33.7539C903 33.5625 903.465 33.4668 903.979 33.4668C904.499 33.4668 904.966 33.5625 905.381 33.7539C905.8 33.9408 906.156 34.2051 906.447 34.5469C906.743 34.8841 906.969 35.2829 907.124 35.7432C907.279 36.1989 907.356 36.6934 907.356 37.2266V37.3838C907.356 37.917 907.279 38.4115 907.124 38.8672C906.969 39.3229 906.743 39.7217 906.447 40.0635C906.156 40.4007 905.802 40.665 905.388 40.8564C904.978 41.0433 904.513 41.1367 903.993 41.1367C903.474 41.1367 903.007 41.0433 902.592 40.8564C902.177 40.665 901.822 40.4007 901.525 40.0635C901.234 39.7217 901.01 39.3229 900.855 38.8672C900.701 38.4115 900.623 37.917 900.623 37.3838ZM901.888 37.2266V37.3838C901.888 37.7529 901.931 38.1016 902.018 38.4297C902.104 38.7533 902.234 39.0404 902.407 39.291C902.585 39.5417 902.806 39.7399 903.07 39.8857C903.335 40.027 903.642 40.0977 903.993 40.0977C904.34 40.0977 904.643 40.027 904.902 39.8857C905.167 39.7399 905.385 39.5417 905.559 39.291C905.732 39.0404 905.862 38.7533 905.948 38.4297C906.039 38.1016 906.085 37.7529 906.085 37.3838V37.2266C906.085 36.862 906.039 36.5179 905.948 36.1943C905.862 35.8662 905.729 35.5768 905.552 35.3262C905.379 35.071 905.16 34.8704 904.896 34.7246C904.636 34.5788 904.33 34.5059 903.979 34.5059C903.633 34.5059 903.328 34.5788 903.063 34.7246C902.804 34.8704 902.585 35.071 902.407 35.3262C902.234 35.5768 902.104 35.8662 902.018 36.1943C901.931 36.5179 901.888 36.862 901.888 37.2266ZM913.468 39.291V33.6035H914.739V41H913.529L913.468 39.291ZM913.707 37.7324L914.233 37.7188C914.233 38.2109 914.181 38.6667 914.076 39.0859C913.976 39.5007 913.812 39.8607 913.584 40.166C913.356 40.4714 913.058 40.7106 912.688 40.8838C912.319 41.0524 911.87 41.1367 911.342 41.1367C910.982 41.1367 910.651 41.0843 910.351 40.9795C910.054 40.8747 909.799 40.7129 909.585 40.4941C909.371 40.2754 909.204 39.9906 909.086 39.6396C908.972 39.2887 908.915 38.8672 908.915 38.375V33.6035H910.18V38.3887C910.18 38.7214 910.216 38.9971 910.289 39.2158C910.367 39.43 910.469 39.6009 910.597 39.7285C910.729 39.8516 910.875 39.9382 911.034 39.9883C911.198 40.0384 911.367 40.0635 911.54 40.0635C912.078 40.0635 912.504 39.9609 912.818 39.7559C913.133 39.5462 913.358 39.266 913.495 38.915C913.636 38.5596 913.707 38.1654 913.707 37.7324ZM919.764 33.6035V34.5742H915.765V33.6035H919.764ZM917.118 31.8057H918.383V39.168C918.383 39.4186 918.422 39.6077 918.499 39.7354C918.576 39.863 918.677 39.9473 918.8 39.9883C918.923 40.0293 919.055 40.0498 919.196 40.0498C919.301 40.0498 919.41 40.0407 919.524 40.0225C919.643 39.9997 919.732 39.9814 919.791 39.9678L919.798 41C919.698 41.0319 919.565 41.0615 919.401 41.0889C919.242 41.1208 919.048 41.1367 918.82 41.1367C918.51 41.1367 918.226 41.0752 917.966 40.9521C917.706 40.8291 917.499 40.624 917.344 40.3369C917.193 40.0452 917.118 39.6533 917.118 39.1611V31.8057Z" fill="#2C2C2C"/>
<path d="M955.46 38.4844C955.46 38.252 955.424 38.0469 955.351 37.8691C955.282 37.6868 955.159 37.5228 954.981 37.377C954.808 37.2311 954.567 37.0921 954.257 36.96C953.951 36.8278 953.564 36.6934 953.095 36.5566C952.603 36.4108 952.158 36.249 951.762 36.0713C951.365 35.889 951.026 35.6816 950.743 35.4492C950.461 35.2168 950.244 34.9502 950.094 34.6494C949.943 34.3486 949.868 34.0046 949.868 33.6172C949.868 33.2298 949.948 32.8721 950.107 32.5439C950.267 32.2158 950.495 31.931 950.791 31.6895C951.092 31.4434 951.45 31.252 951.864 31.1152C952.279 30.9785 952.742 30.9102 953.252 30.9102C953.999 30.9102 954.633 31.0537 955.152 31.3408C955.676 31.6234 956.075 31.9948 956.349 32.4551C956.622 32.9108 956.759 33.3984 956.759 33.918H955.446C955.446 33.5443 955.367 33.2139 955.207 32.9268C955.048 32.6351 954.806 32.4072 954.482 32.2432C954.159 32.0745 953.749 31.9902 953.252 31.9902C952.783 31.9902 952.395 32.0609 952.09 32.2021C951.785 32.3434 951.557 32.5348 951.406 32.7764C951.26 33.0179 951.188 33.2936 951.188 33.6035C951.188 33.8132 951.231 34.0046 951.317 34.1777C951.409 34.3464 951.548 34.5036 951.734 34.6494C951.926 34.7952 952.167 34.9297 952.459 35.0527C952.755 35.1758 953.108 35.2943 953.519 35.4082C954.084 35.5677 954.571 35.7454 954.981 35.9414C955.392 36.1374 955.729 36.3584 955.993 36.6045C956.262 36.846 956.46 37.1217 956.588 37.4316C956.72 37.737 956.786 38.0833 956.786 38.4707C956.786 38.8763 956.704 39.2432 956.54 39.5713C956.376 39.8994 956.141 40.1797 955.836 40.4121C955.531 40.6445 955.164 40.8245 954.735 40.9521C954.312 41.0752 953.838 41.1367 953.313 41.1367C952.853 41.1367 952.4 41.0729 951.953 40.9453C951.511 40.8177 951.108 40.6263 950.743 40.3711C950.383 40.1159 950.094 39.8014 949.875 39.4277C949.661 39.0495 949.554 38.612 949.554 38.1152H950.866C950.866 38.457 950.932 38.751 951.064 38.9971C951.197 39.2386 951.377 39.4391 951.604 39.5986C951.837 39.7581 952.099 39.8766 952.391 39.9541C952.687 40.027 952.994 40.0635 953.313 40.0635C953.774 40.0635 954.163 39.9997 954.482 39.8721C954.801 39.7445 955.043 39.5622 955.207 39.3252C955.376 39.0882 955.46 38.8079 955.46 38.4844ZM961.346 41.1367C960.831 41.1367 960.364 41.0501 959.944 40.877C959.53 40.6992 959.172 40.4508 958.871 40.1318C958.575 39.8128 958.347 39.4346 958.188 38.9971C958.028 38.5596 957.948 38.0811 957.948 37.5615V37.2744C957.948 36.6729 958.037 36.1374 958.215 35.668C958.393 35.194 958.634 34.793 958.939 34.4648C959.245 34.1367 959.591 33.8883 959.979 33.7197C960.366 33.5511 960.767 33.4668 961.182 33.4668C961.71 33.4668 962.166 33.5579 962.549 33.7402C962.936 33.9225 963.253 34.1777 963.499 34.5059C963.745 34.8294 963.927 35.2122 964.046 35.6543C964.164 36.0918 964.224 36.5703 964.224 37.0898V37.6572H958.7V36.625H962.959V36.5293C962.941 36.2012 962.872 35.8822 962.754 35.5723C962.64 35.2624 962.458 35.0072 962.207 34.8066C961.956 34.6061 961.615 34.5059 961.182 34.5059C960.895 34.5059 960.63 34.5674 960.389 34.6904C960.147 34.8089 959.94 34.9867 959.767 35.2236C959.593 35.4606 959.459 35.75 959.363 36.0918C959.268 36.4336 959.22 36.8278 959.22 37.2744V37.5615C959.22 37.9124 959.268 38.2428 959.363 38.5527C959.464 38.8581 959.607 39.127 959.794 39.3594C959.985 39.5918 960.215 39.7741 960.484 39.9062C960.758 40.0384 961.068 40.1045 961.414 40.1045C961.861 40.1045 962.239 40.0133 962.549 39.8311C962.859 39.6488 963.13 39.4049 963.362 39.0996L964.128 39.708C963.968 39.9495 963.766 40.1797 963.52 40.3984C963.273 40.6172 962.97 40.7949 962.61 40.9316C962.255 41.0684 961.833 41.1367 961.346 41.1367ZM966.965 34.7656V41H965.7V33.6035H966.931L966.965 34.7656ZM969.275 33.5625L969.269 34.7383C969.164 34.7155 969.063 34.7018 968.968 34.6973C968.877 34.6882 968.772 34.6836 968.653 34.6836C968.362 34.6836 968.104 34.7292 967.881 34.8203C967.658 34.9115 967.468 35.0391 967.313 35.2031C967.159 35.3672 967.035 35.5632 966.944 35.791C966.858 36.0143 966.801 36.2604 966.773 36.5293L966.418 36.7344C966.418 36.2878 966.461 35.8685 966.548 35.4766C966.639 35.0846 966.778 34.7383 966.965 34.4375C967.152 34.1322 967.389 33.8952 967.676 33.7266C967.967 33.5534 968.314 33.4668 968.715 33.4668C968.806 33.4668 968.911 33.4782 969.029 33.501C969.148 33.5192 969.23 33.5397 969.275 33.5625ZM972.816 39.8584L974.84 33.6035H976.132L973.473 41H972.625L972.816 39.8584ZM971.128 33.6035L973.213 39.8926L973.356 41H972.509L969.829 33.6035H971.128ZM978.723 33.6035V41H977.451V33.6035H978.723ZM977.355 31.6416C977.355 31.4365 977.417 31.2633 977.54 31.1221C977.668 30.9808 977.854 30.9102 978.101 30.9102C978.342 30.9102 978.527 30.9808 978.654 31.1221C978.786 31.2633 978.853 31.4365 978.853 31.6416C978.853 31.8376 978.786 32.0062 978.654 32.1475C978.527 32.2842 978.342 32.3525 978.101 32.3525C977.854 32.3525 977.668 32.2842 977.54 32.1475C977.417 32.0062 977.355 31.8376 977.355 31.6416ZM983.713 40.0977C984.014 40.0977 984.292 40.0361 984.547 39.9131C984.802 39.79 985.012 39.6214 985.176 39.4072C985.34 39.1885 985.433 38.9401 985.456 38.6621H986.659C986.636 39.0996 986.488 39.5075 986.215 39.8857C985.946 40.2594 985.593 40.5625 985.155 40.7949C984.718 41.0228 984.237 41.1367 983.713 41.1367C983.157 41.1367 982.672 41.0387 982.257 40.8428C981.847 40.6468 981.505 40.3779 981.231 40.0361C980.963 39.6943 980.76 39.3024 980.623 38.8604C980.491 38.4137 980.425 37.9421 980.425 37.4453V37.1582C980.425 36.6615 980.491 36.1921 980.623 35.75C980.76 35.3034 980.963 34.9092 981.231 34.5674C981.505 34.2256 981.847 33.9567 982.257 33.7607C982.672 33.5648 983.157 33.4668 983.713 33.4668C984.292 33.4668 984.798 33.5853 985.23 33.8223C985.663 34.0547 986.003 34.3737 986.249 34.7793C986.5 35.1803 986.636 35.6361 986.659 36.1465H985.456C985.433 35.8411 985.347 35.5654 985.196 35.3193C985.05 35.0732 984.85 34.8773 984.595 34.7314C984.344 34.5811 984.05 34.5059 983.713 34.5059C983.326 34.5059 983 34.5833 982.735 34.7383C982.476 34.8887 982.268 35.0938 982.113 35.3535C981.963 35.6087 981.854 35.8936 981.785 36.208C981.721 36.5179 981.689 36.8346 981.689 37.1582V37.4453C981.689 37.7689 981.721 38.0879 981.785 38.4023C981.849 38.7168 981.956 39.0016 982.106 39.2568C982.261 39.512 982.469 39.7171 982.729 39.8721C982.993 40.0225 983.321 40.0977 983.713 40.0977ZM991.15 41.1367C990.635 41.1367 990.168 41.0501 989.749 40.877C989.334 40.6992 988.977 40.4508 988.676 40.1318C988.38 39.8128 988.152 39.4346 987.992 38.9971C987.833 38.5596 987.753 38.0811 987.753 37.5615V37.2744C987.753 36.6729 987.842 36.1374 988.02 35.668C988.197 35.194 988.439 34.793 988.744 34.4648C989.049 34.1367 989.396 33.8883 989.783 33.7197C990.171 33.5511 990.572 33.4668 990.986 33.4668C991.515 33.4668 991.971 33.5579 992.354 33.7402C992.741 33.9225 993.058 34.1777 993.304 34.5059C993.55 34.8294 993.732 35.2122 993.851 35.6543C993.969 36.0918 994.028 36.5703 994.028 37.0898V37.6572H988.505V36.625H992.764V36.5293C992.745 36.2012 992.677 35.8822 992.559 35.5723C992.445 35.2624 992.262 35.0072 992.012 34.8066C991.761 34.6061 991.419 34.5059 990.986 34.5059C990.699 34.5059 990.435 34.5674 990.193 34.6904C989.952 34.8089 989.744 34.9867 989.571 35.2236C989.398 35.4606 989.264 35.75 989.168 36.0918C989.072 36.4336 989.024 36.8278 989.024 37.2744V37.5615C989.024 37.9124 989.072 38.2428 989.168 38.5527C989.268 38.8581 989.412 39.127 989.599 39.3594C989.79 39.5918 990.02 39.7741 990.289 39.9062C990.562 40.0384 990.872 40.1045 991.219 40.1045C991.665 40.1045 992.044 40.0133 992.354 39.8311C992.663 39.6488 992.935 39.4049 993.167 39.0996L993.933 39.708C993.773 39.9495 993.57 40.1797 993.324 40.3984C993.078 40.6172 992.775 40.7949 992.415 40.9316C992.06 41.0684 991.638 41.1367 991.15 41.1367Z" fill="#2C2C2C"/>
<path d="M1024.57 31.0469H1025.85L1029.11 39.1611L1032.37 31.0469H1033.65L1029.6 41H1028.61L1024.57 31.0469ZM1024.16 31.0469H1025.28L1025.47 37.1172V41H1024.16V31.0469ZM1032.93 31.0469H1034.06V41H1032.75V37.1172L1032.93 31.0469ZM1039.26 41.1367C1038.74 41.1367 1038.27 41.0501 1037.85 40.877C1037.44 40.6992 1037.08 40.4508 1036.78 40.1318C1036.49 39.8128 1036.26 39.4346 1036.1 38.9971C1035.94 38.5596 1035.86 38.0811 1035.86 37.5615V37.2744C1035.86 36.6729 1035.95 36.1374 1036.12 35.668C1036.3 35.194 1036.54 34.793 1036.85 34.4648C1037.15 34.1367 1037.5 33.8883 1037.89 33.7197C1038.28 33.5511 1038.68 33.4668 1039.09 33.4668C1039.62 33.4668 1040.08 33.5579 1040.46 33.7402C1040.85 33.9225 1041.16 34.1777 1041.41 34.5059C1041.66 34.8294 1041.84 35.2122 1041.96 35.6543C1042.07 36.0918 1042.13 36.5703 1042.13 37.0898V37.6572H1036.61V36.625H1040.87V36.5293C1040.85 36.2012 1040.78 35.8822 1040.66 35.5723C1040.55 35.2624 1040.37 35.0072 1040.12 34.8066C1039.87 34.6061 1039.52 34.5059 1039.09 34.5059C1038.8 34.5059 1038.54 34.5674 1038.3 34.6904C1038.06 34.8089 1037.85 34.9867 1037.68 35.2236C1037.5 35.4606 1037.37 35.75 1037.27 36.0918C1037.18 36.4336 1037.13 36.8278 1037.13 37.2744V37.5615C1037.13 37.9124 1037.18 38.2428 1037.27 38.5527C1037.37 38.8581 1037.52 39.127 1037.7 39.3594C1037.9 39.5918 1038.13 39.7741 1038.39 39.9062C1038.67 40.0384 1038.98 40.1045 1039.32 40.1045C1039.77 40.1045 1040.15 40.0133 1040.46 39.8311C1040.77 39.6488 1041.04 39.4049 1041.27 39.0996L1042.04 39.708C1041.88 39.9495 1041.68 40.1797 1041.43 40.3984C1041.18 40.6172 1040.88 40.7949 1040.52 40.9316C1040.17 41.0684 1039.74 41.1367 1039.26 41.1367ZM1044.88 35.1826V41H1043.61V33.6035H1044.81L1044.88 35.1826ZM1044.57 37.0215L1044.05 37.001C1044.05 36.4951 1044.13 36.028 1044.27 35.5996C1044.42 35.1667 1044.62 34.7907 1044.89 34.4717C1045.15 34.1527 1045.47 33.9066 1045.83 33.7334C1046.2 33.5557 1046.61 33.4668 1047.06 33.4668C1047.42 33.4668 1047.75 33.5169 1048.04 33.6172C1048.33 33.7129 1048.58 33.8678 1048.79 34.082C1048.99 34.2962 1049.15 34.5742 1049.26 34.916C1049.37 35.2533 1049.43 35.6657 1049.43 36.1533V41H1048.16V36.1396C1048.16 35.7523 1048.1 35.4424 1047.99 35.21C1047.87 34.973 1047.71 34.8021 1047.49 34.6973C1047.27 34.5879 1047 34.5332 1046.68 34.5332C1046.37 34.5332 1046.08 34.5993 1045.82 34.7314C1045.56 34.8636 1045.34 35.0459 1045.16 35.2783C1044.97 35.5107 1044.83 35.7773 1044.72 36.0781C1044.62 36.3743 1044.57 36.6888 1044.57 37.0215ZM1055.87 39.291V33.6035H1057.15V41H1055.94L1055.87 39.291ZM1056.11 37.7324L1056.64 37.7188C1056.64 38.2109 1056.59 38.6667 1056.48 39.0859C1056.38 39.5007 1056.22 39.8607 1055.99 40.166C1055.76 40.4714 1055.46 40.7106 1055.09 40.8838C1054.73 41.0524 1054.28 41.1367 1053.75 41.1367C1053.39 41.1367 1053.06 41.0843 1052.76 40.9795C1052.46 40.8747 1052.21 40.7129 1051.99 40.4941C1051.78 40.2754 1051.61 39.9906 1051.49 39.6396C1051.38 39.2887 1051.32 38.8672 1051.32 38.375V33.6035H1052.59V38.3887C1052.59 38.7214 1052.62 38.9971 1052.7 39.2158C1052.77 39.43 1052.88 39.6009 1053 39.7285C1053.14 39.8516 1053.28 39.9382 1053.44 39.9883C1053.6 40.0384 1053.77 40.0635 1053.95 40.0635C1054.48 40.0635 1054.91 39.9609 1055.22 39.7559C1055.54 39.5462 1055.76 39.266 1055.9 38.915C1056.04 38.5596 1056.11 38.1654 1056.11 37.7324Z" fill="#2C2C2C"/>
<path d="M1094.16 37.835H1095.48C1095.41 38.4639 1095.23 39.0267 1094.94 39.5234C1094.64 40.0202 1094.23 40.4144 1093.7 40.7061C1093.17 40.9932 1092.5 41.1367 1091.7 41.1367C1091.12 41.1367 1090.59 41.0273 1090.11 40.8086C1089.64 40.5898 1089.23 40.2799 1088.89 39.8789C1088.54 39.4733 1088.28 38.988 1088.09 38.4229C1087.91 37.8532 1087.82 37.2197 1087.82 36.5225V35.5312C1087.82 34.834 1087.91 34.2028 1088.09 33.6377C1088.28 33.068 1088.55 32.5804 1088.89 32.1748C1089.24 31.7692 1089.67 31.457 1090.16 31.2383C1090.65 31.0195 1091.2 30.9102 1091.82 30.9102C1092.57 30.9102 1093.21 31.0514 1093.73 31.334C1094.25 31.6165 1094.65 32.0085 1094.94 32.5098C1095.23 33.0065 1095.41 33.583 1095.48 34.2393H1094.16C1094.1 33.7744 1093.98 33.3757 1093.81 33.043C1093.64 32.7057 1093.39 32.446 1093.07 32.2637C1092.75 32.0814 1092.33 31.9902 1091.82 31.9902C1091.38 31.9902 1090.99 32.0745 1090.65 32.2432C1090.32 32.4118 1090.04 32.651 1089.81 32.9609C1089.59 33.2708 1089.42 33.6423 1089.3 34.0752C1089.19 34.5081 1089.13 34.9889 1089.13 35.5176V36.5225C1089.13 37.0101 1089.18 37.4681 1089.28 37.8965C1089.39 38.3249 1089.55 38.7008 1089.75 39.0244C1089.96 39.348 1090.23 39.6032 1090.55 39.79C1090.88 39.9723 1091.26 40.0635 1091.7 40.0635C1092.26 40.0635 1092.71 39.9746 1093.04 39.7969C1093.38 39.6191 1093.63 39.3639 1093.79 39.0312C1093.97 38.6986 1094.09 38.2998 1094.16 37.835ZM1096.75 37.3838V37.2266C1096.75 36.6934 1096.83 36.1989 1096.98 35.7432C1097.14 35.2829 1097.36 34.8841 1097.65 34.5469C1097.94 34.2051 1098.3 33.9408 1098.71 33.7539C1099.12 33.5625 1099.59 33.4668 1100.1 33.4668C1100.62 33.4668 1101.09 33.5625 1101.51 33.7539C1101.93 33.9408 1102.28 34.2051 1102.57 34.5469C1102.87 34.8841 1103.09 35.2829 1103.25 35.7432C1103.4 36.1989 1103.48 36.6934 1103.48 37.2266V37.3838C1103.48 37.917 1103.4 38.4115 1103.25 38.8672C1103.09 39.3229 1102.87 39.7217 1102.57 40.0635C1102.28 40.4007 1101.93 40.665 1101.51 40.8564C1101.1 41.0433 1100.64 41.1367 1100.12 41.1367C1099.6 41.1367 1099.13 41.0433 1098.72 40.8564C1098.3 40.665 1097.95 40.4007 1097.65 40.0635C1097.36 39.7217 1097.14 39.3229 1096.98 38.8672C1096.83 38.4115 1096.75 37.917 1096.75 37.3838ZM1098.01 37.2266V37.3838C1098.01 37.7529 1098.06 38.1016 1098.14 38.4297C1098.23 38.7533 1098.36 39.0404 1098.53 39.291C1098.71 39.5417 1098.93 39.7399 1099.2 39.8857C1099.46 40.027 1099.77 40.0977 1100.12 40.0977C1100.46 40.0977 1100.77 40.027 1101.03 39.8857C1101.29 39.7399 1101.51 39.5417 1101.68 39.291C1101.86 39.0404 1101.99 38.7533 1102.07 38.4297C1102.16 38.1016 1102.21 37.7529 1102.21 37.3838V37.2266C1102.21 36.862 1102.16 36.5179 1102.07 36.1943C1101.99 35.8662 1101.85 35.5768 1101.68 35.3262C1101.5 35.071 1101.28 34.8704 1101.02 34.7246C1100.76 34.5788 1100.46 34.5059 1100.1 34.5059C1099.76 34.5059 1099.45 34.5788 1099.19 34.7246C1098.93 34.8704 1098.71 35.071 1098.53 35.3262C1098.36 35.5768 1098.23 35.8662 1098.14 36.1943C1098.06 36.5179 1098.01 36.862 1098.01 37.2266ZM1106.33 35.1826V41H1105.07V33.6035H1106.26L1106.33 35.1826ZM1106.03 37.0215L1105.5 37.001C1105.51 36.4951 1105.58 36.028 1105.73 35.5996C1105.88 35.1667 1106.08 34.7907 1106.35 34.4717C1106.61 34.1527 1106.92 33.9066 1107.29 33.7334C1107.66 33.5557 1108.07 33.4668 1108.51 33.4668C1108.88 33.4668 1109.21 33.5169 1109.5 33.6172C1109.79 33.7129 1110.04 33.8678 1110.24 34.082C1110.45 34.2962 1110.61 34.5742 1110.72 34.916C1110.83 35.2533 1110.88 35.6657 1110.88 36.1533V41H1109.61V36.1396C1109.61 35.7523 1109.56 35.4424 1109.44 35.21C1109.33 34.973 1109.16 34.8021 1108.94 34.6973C1108.72 34.5879 1108.46 34.5332 1108.14 34.5332C1107.82 34.5332 1107.54 34.5993 1107.28 34.7314C1107.02 34.8636 1106.8 35.0459 1106.61 35.2783C1106.43 35.5107 1106.29 35.7773 1106.18 36.0781C1106.08 36.3743 1106.03 36.6888 1106.03 37.0215ZM1115.9 33.6035V34.5742H1111.9V33.6035H1115.9ZM1113.26 31.8057H1114.52V39.168C1114.52 39.4186 1114.56 39.6077 1114.64 39.7354C1114.72 39.863 1114.82 39.9473 1114.94 39.9883C1115.06 40.0293 1115.19 40.0498 1115.33 40.0498C1115.44 40.0498 1115.55 40.0407 1115.66 40.0225C1115.78 39.9997 1115.87 39.9814 1115.93 39.9678L1115.94 41C1115.84 41.0319 1115.7 41.0615 1115.54 41.0889C1115.38 41.1208 1115.19 41.1367 1114.96 41.1367C1114.65 41.1367 1114.36 41.0752 1114.1 40.9521C1113.84 40.8291 1113.64 40.624 1113.48 40.3369C1113.33 40.0452 1113.26 39.6533 1113.26 39.1611V31.8057ZM1121.75 39.7354V35.9277C1121.75 35.6361 1121.69 35.3831 1121.57 35.1689C1121.46 34.9502 1121.28 34.7816 1121.05 34.6631C1120.82 34.5446 1120.53 34.4854 1120.19 34.4854C1119.87 34.4854 1119.59 34.54 1119.35 34.6494C1119.11 34.7588 1118.92 34.9023 1118.79 35.0801C1118.65 35.2578 1118.59 35.4492 1118.59 35.6543H1117.32C1117.32 35.39 1117.39 35.1279 1117.53 34.8682C1117.67 34.6084 1117.86 34.3737 1118.12 34.1641C1118.38 33.9499 1118.69 33.7812 1119.05 33.6582C1119.41 33.5306 1119.82 33.4668 1120.26 33.4668C1120.8 33.4668 1121.28 33.5579 1121.69 33.7402C1122.1 33.9225 1122.42 34.1982 1122.66 34.5674C1122.89 34.932 1123.01 35.39 1123.01 35.9414V39.3867C1123.01 39.6328 1123.03 39.8949 1123.07 40.1729C1123.12 40.4508 1123.18 40.6901 1123.27 40.8906V41H1121.95C1121.89 40.8542 1121.84 40.6605 1121.8 40.4189C1121.77 40.1729 1121.75 39.945 1121.75 39.7354ZM1121.97 36.5156L1121.98 37.4043H1120.7C1120.34 37.4043 1120.02 37.4339 1119.74 37.4932C1119.45 37.5479 1119.22 37.6322 1119.03 37.7461C1118.83 37.86 1118.69 38.0036 1118.59 38.1768C1118.49 38.3454 1118.44 38.5436 1118.44 38.7715C1118.44 39.0039 1118.49 39.2158 1118.6 39.4072C1118.7 39.5986 1118.86 39.7513 1119.07 39.8652C1119.28 39.9746 1119.54 40.0293 1119.85 40.0293C1120.24 40.0293 1120.58 39.9473 1120.88 39.7832C1121.18 39.6191 1121.41 39.4186 1121.58 39.1816C1121.76 38.9447 1121.86 38.7145 1121.87 38.4912L1122.41 39.0996C1122.38 39.291 1122.29 39.5029 1122.15 39.7354C1122.01 39.9678 1121.82 40.1911 1121.58 40.4053C1121.35 40.6149 1121.07 40.7904 1120.75 40.9316C1120.43 41.0684 1120.07 41.1367 1119.67 41.1367C1119.17 41.1367 1118.73 41.0387 1118.35 40.8428C1117.98 40.6468 1117.68 40.3848 1117.47 40.0566C1117.27 39.724 1117.17 39.3525 1117.17 38.9424C1117.17 38.5459 1117.24 38.1973 1117.4 37.8965C1117.55 37.5911 1117.78 37.3382 1118.07 37.1377C1118.36 36.9326 1118.71 36.7777 1119.12 36.6729C1119.53 36.568 1119.99 36.5156 1120.5 36.5156H1121.97ZM1127.96 40.0977C1128.26 40.0977 1128.54 40.0361 1128.79 39.9131C1129.05 39.79 1129.26 39.6214 1129.42 39.4072C1129.59 39.1885 1129.68 38.9401 1129.7 38.6621H1130.91C1130.88 39.0996 1130.74 39.5075 1130.46 39.8857C1130.19 40.2594 1129.84 40.5625 1129.4 40.7949C1128.97 41.0228 1128.49 41.1367 1127.96 41.1367C1127.4 41.1367 1126.92 41.0387 1126.5 40.8428C1126.09 40.6468 1125.75 40.3779 1125.48 40.0361C1125.21 39.6943 1125.01 39.3024 1124.87 38.8604C1124.74 38.4137 1124.67 37.9421 1124.67 37.4453V37.1582C1124.67 36.6615 1124.74 36.1921 1124.87 35.75C1125.01 35.3034 1125.21 34.9092 1125.48 34.5674C1125.75 34.2256 1126.09 33.9567 1126.5 33.7607C1126.92 33.5648 1127.4 33.4668 1127.96 33.4668C1128.54 33.4668 1129.05 33.5853 1129.48 33.8223C1129.91 34.0547 1130.25 34.3737 1130.5 34.7793C1130.75 35.1803 1130.88 35.6361 1130.91 36.1465H1129.7C1129.68 35.8411 1129.59 35.5654 1129.44 35.3193C1129.3 35.0732 1129.1 34.8773 1128.84 34.7314C1128.59 34.5811 1128.3 34.5059 1127.96 34.5059C1127.57 34.5059 1127.25 34.5833 1126.98 34.7383C1126.72 34.8887 1126.52 35.0938 1126.36 35.3535C1126.21 35.6087 1126.1 35.8936 1126.03 36.208C1125.97 36.5179 1125.94 36.8346 1125.94 37.1582V37.4453C1125.94 37.7689 1125.97 38.0879 1126.03 38.4023C1126.1 38.7168 1126.2 39.0016 1126.35 39.2568C1126.51 39.512 1126.72 39.7171 1126.98 39.8721C1127.24 40.0225 1127.57 40.0977 1127.96 40.0977ZM1135.43 33.6035V34.5742H1131.43V33.6035H1135.43ZM1132.78 31.8057H1134.04V39.168C1134.04 39.4186 1134.08 39.6077 1134.16 39.7354C1134.24 39.863 1134.34 39.9473 1134.46 39.9883C1134.58 40.0293 1134.72 40.0498 1134.86 40.0498C1134.96 40.0498 1135.07 40.0407 1135.19 40.0225C1135.31 39.9997 1135.39 39.9814 1135.45 39.9678L1135.46 41C1135.36 41.0319 1135.23 41.0615 1135.06 41.0889C1134.9 41.1208 1134.71 41.1367 1134.48 41.1367C1134.17 41.1367 1133.89 41.0752 1133.63 40.9521C1133.37 40.8291 1133.16 40.624 1133.01 40.3369C1132.86 40.0452 1132.78 39.6533 1132.78 39.1611V31.8057Z" fill="#2C2C2C"/>
<path d="M38.9467 20.5393C40.595 17.3067 45.2257 17.3067 46.874 20.5393L48.9257 24.5631C49.5707 25.8279 50.7835 26.7085 52.1885 26.9321L56.6721 27.6458C60.2526 28.2157 61.6807 32.5898 59.1231 35.1528L55.8953 38.3875C54.8953 39.3896 54.4344 40.8073 54.6545 42.2039L55.3636 46.7036C55.9276 50.2822 52.1841 52.9888 48.9489 51.3416L44.9323 49.2965C43.6623 48.6499 42.1584 48.6499 40.8884 49.2965L36.8718 51.3416C33.6366 52.9888 29.8931 50.2822 30.4571 46.7036L31.1662 42.2039C31.3863 40.8073 30.9254 39.3896 29.9254 38.3875L26.6976 35.1528C24.14 32.5898 25.5681 28.2157 29.1486 27.6458L33.6322 26.9321C35.0372 26.7085 36.2501 25.8279 36.895 24.5631L38.9467 20.5393Z" fill="#FFE550"/>
<path d="M17.8167 43.0787L17.7821 43.0869C17.7862 43.2075 17.7797 43.6952 17.7625 44.55C17.7569 45.4021 17.7552 45.9616 17.7573 46.2284C17.7568 46.4838 17.7511 46.6917 17.7404 46.8523C17.7411 47.0101 17.7416 47.1923 17.7417 47.3989C17.7391 47.594 17.7283 47.7545 17.7094 47.8805C17.6993 47.9923 17.6891 48.1041 17.679 48.2159C17.656 48.4279 17.61 48.5421 17.5407 48.5585C17.3907 48.594 17.1565 48.4793 16.838 48.2143C16.5168 47.9379 16.3317 47.6961 16.2828 47.4889C16.2338 47.2818 16.2224 45.7652 16.2487 42.9394C16.2865 40.1108 16.2122 38.2506 16.0257 37.3589C15.9849 37.1863 15.9926 37.0386 16.0489 36.9159C16.1071 36.6469 16.4067 36.3937 16.9475 36.1564C17.4999 35.9162 18.3241 35.6665 19.4201 35.4071C20.5277 35.145 21.4066 34.9978 22.0569 34.9654C22.7186 34.9303 23.074 35.0164 23.123 35.2235C23.1556 35.3617 23.0807 35.4827 22.8982 35.5867C22.7156 35.6906 22.5535 35.7776 22.4117 35.8477C22.2671 35.9062 22.0778 35.9814 21.8437 36.0732C21.6068 36.1536 21.3873 36.2298 21.1851 36.302C20.9801 36.3627 20.7144 36.4499 20.388 36.5636C20.0731 36.6745 19.7813 36.7801 19.5126 36.8801C19.2411 36.9687 18.8757 37.0977 18.4163 37.2672C17.9568 37.4367 17.6593 37.5436 17.5235 37.5878C17.5432 37.6196 17.5613 37.6701 17.5776 37.7391C17.7055 38.2801 17.7744 39.5764 17.7844 41.628C18.5078 41.4932 19.271 41.2944 20.0738 41.0315C20.8882 40.7658 21.3876 40.6111 21.5722 40.5675C22.0107 40.4637 22.2516 40.5039 22.2952 40.6881C22.3795 41.0448 21.9484 41.4629 21.0018 41.9421C20.0668 42.4186 19.005 42.7975 17.8167 43.0787Z" fill="#2C2C2C"/>
<path d="M29.1146 39.8945C29.0221 39.5032 28.8716 39.1499 28.663 38.8347C28.4517 38.5079 28.2059 38.2926 27.9255 38.1888C27.1812 38.5959 26.6403 39.3741 26.3029 40.5235C25.9743 41.6586 25.9148 42.6693 26.1243 43.5555C26.3339 44.4418 26.6837 44.9424 27.1738 45.0573C27.9664 44.6996 28.5369 43.969 28.8851 42.8657C29.2422 41.7481 29.3187 40.7578 29.1146 39.8945ZM24.5999 41.1271C24.7914 40.1337 25.1422 39.2729 25.6522 38.5445C26.1711 37.8019 26.7709 37.35 27.4516 37.1889C28.1438 37.0251 28.7901 37.1821 29.3903 37.6599C29.9879 38.1261 30.386 38.7794 30.5847 39.6196C30.7806 40.4482 30.7801 41.3477 30.5831 42.318C30.3834 43.2768 29.9939 44.1286 29.4146 44.8734C28.8442 45.6039 28.161 46.0633 27.3649 46.2517C26.7765 46.391 26.2222 46.2366 25.702 45.7884C25.1818 45.3403 24.8238 44.7019 24.6279 43.8732C24.4292 43.033 24.4199 42.1176 24.5999 41.1271Z" fill="#2C2C2C"/>
<path d="M36.9564 38.0387C36.8639 37.6474 36.7133 37.2941 36.5048 36.9788C36.2935 36.6521 36.0477 36.4368 35.7673 36.333C35.0229 36.7401 34.4821 37.5183 34.1447 38.6677C33.8161 39.8028 33.7566 40.8135 33.9661 41.6997C34.1757 42.5859 34.5255 43.0865 35.0156 43.2015C35.8082 42.8437 36.3786 42.1132 36.7269 41.0099C37.084 39.8923 37.1605 38.9019 36.9564 38.0387ZM32.4417 39.2712C32.6332 38.2779 32.984 37.4171 33.494 36.6887C34.0129 35.9461 34.6126 35.4942 35.2933 35.3331C35.9856 35.1693 36.6318 35.3263 37.2321 35.804C37.8297 36.2703 38.2278 36.9235 38.4264 37.7637C38.6224 38.5924 38.6218 39.4919 38.4248 40.4622C38.2251 41.421 37.8357 42.2728 37.2564 43.0175C36.686 43.7481 36.0027 44.2075 35.2066 44.3959C34.6182 44.5352 34.064 44.3807 33.5438 43.9326C33.0236 43.4845 32.6656 42.8461 32.4696 42.0174C32.271 41.1772 32.2617 40.2618 32.4417 39.2712Z" fill="#2C2C2C"/>
<path d="M45.1418 27.8978C45.3264 27.8542 45.5922 27.9736 45.9392 28.256C46.295 28.5243 46.5083 28.808 46.5791 29.1073C46.6498 29.4065 46.707 30.2924 46.7506 31.7648C46.7914 33.2257 46.7984 34.7494 46.7714 36.3357C46.7353 39.8931 46.5846 41.7032 46.3193 41.766C46.1577 41.8042 45.9558 41.7487 45.7134 41.5995C45.4798 41.436 45.3453 41.2794 45.3099 41.1298C45.2746 40.9802 45.2442 40.6714 45.2188 40.2034C44.3603 41.6219 43.5099 42.4309 42.6677 42.6302C42.16 42.7503 41.6441 42.6293 41.1199 42.2673C40.6073 41.9024 40.2924 41.4726 40.1754 40.9777C40.0067 40.2641 39.997 39.3731 40.1465 38.3046C40.3047 37.222 40.652 36.1918 41.1884 35.2141C41.7247 34.2364 42.4025 33.6507 43.2216 33.4568C44.0408 33.2629 44.7275 33.6169 45.2819 34.5188C45.2934 31.9395 45.1606 29.9352 44.8836 28.5059C44.8019 28.1606 44.888 27.9579 45.1418 27.8978ZM45.2424 36.8252C45.0955 36.2037 44.862 35.7059 44.5422 35.3319C44.2338 34.9552 43.9296 34.8024 43.6297 34.8734C43.1336 34.9908 42.698 35.4159 42.3231 36.1488C41.9481 36.8817 41.6988 37.682 41.575 38.5499C41.4601 39.4036 41.4707 40.1181 41.6068 40.6936C41.6557 40.9008 41.7702 41.0499 41.9501 41.141C42.13 41.2321 42.3238 41.2531 42.5315 41.204C42.9815 41.0975 43.511 40.6319 44.12 39.8071C44.7406 38.9797 45.1206 38.0876 45.2599 37.131L45.2628 36.9115L45.2424 36.8252Z" fill="#2C2C2C"/>
<path d="M56.289 35.7787C56.5121 36.7225 56.273 37.6177 55.5716 38.4643C54.8675 39.2994 53.9617 39.848 52.8541 40.1101C51.7581 40.3695 50.7857 40.3018 49.9371 39.9071C49.0857 39.5009 48.6001 39.0446 48.4804 38.5382C48.3988 38.1929 48.4618 37.9957 48.6694 37.9466C48.854 37.9029 49.2828 38.0931 49.9557 38.5172C50.2096 38.6637 50.53 38.7824 50.917 38.8731C51.3154 38.9611 51.7108 38.9587 52.1031 38.8659C52.9107 38.6747 53.577 38.2983 54.1021 37.7365C54.6387 37.172 54.8498 36.648 54.7355 36.1646C54.662 35.8538 54.3605 35.5059 53.8308 35.1208C53.3012 34.7357 52.7322 34.3903 52.1239 34.0846C51.5244 33.7646 50.9584 33.4063 50.4261 33.0097C49.8937 32.6131 49.5935 32.2709 49.5255 31.9832C49.4575 31.6954 49.443 31.3768 49.4822 31.0272C49.5214 30.6776 49.5925 30.4116 49.6956 30.2292C50.0285 29.6278 50.619 29.008 51.4671 28.3698C52.3268 27.7288 53.0796 27.3319 53.7257 27.179C54.0603 27.0998 54.3688 27.1422 54.6513 27.3063C54.9337 27.4704 55.1035 27.6733 55.1607 27.915C55.1879 28.0301 55.0885 28.1508 54.8625 28.2772C54.6366 28.4036 54.2892 28.5831 53.8203 28.8156C53.3602 29.0338 52.9575 29.2628 52.6121 29.5026C51.4051 30.323 50.8573 30.9691 50.9689 31.441C51.0288 31.6942 51.8711 32.2423 53.4958 33.0854C54.1211 33.4114 54.7122 33.8245 55.269 34.3247C55.8347 34.8106 56.1747 35.2953 56.289 35.7787Z" fill="#2C2C2C"/>
<path d="M60.2624 36.6432C60.3142 36.8619 60.4669 36.9412 60.7207 36.8811C61.1592 36.7773 61.6613 36.5309 62.2272 36.1417C62.8018 35.7384 63.1238 35.5285 63.193 35.5121C63.4007 35.4629 63.5304 35.5477 63.5821 35.7664C63.661 36.1002 63.4061 36.5677 62.8172 37.1688C62.2399 37.7673 61.6686 38.1334 61.1033 38.2672C60.5495 38.3983 60.0526 38.3579 59.6127 38.146C59.17 37.9226 58.9106 37.6498 58.8344 37.3275C58.7582 37.0052 58.7308 36.5803 58.7522 36.0526C58.7709 35.5134 58.8106 34.8052 58.8712 33.9279C58.9406 33.0364 58.9864 32.3025 59.0085 31.726C58.4962 31.981 58.1477 32.1303 57.9631 32.174C57.7785 32.2177 57.5721 32.1693 57.344 32.0288C57.1247 31.8741 56.9946 31.7104 56.9538 31.5378C56.8885 31.2615 57.5758 30.8193 59.0158 30.2112C58.9976 29.2067 58.9014 28.3362 58.7273 27.5996C58.6456 27.2543 58.7202 27.0544 58.9509 26.9997C59.147 26.9533 59.4193 27.0226 59.7676 27.2075C60.1132 27.381 60.3227 27.6231 60.3962 27.9338C60.4696 28.2446 60.5008 28.8145 60.4897 29.6436C61.1338 29.4304 61.6519 29.2774 62.0442 29.1846C62.7364 29.0207 63.1179 29.0884 63.1887 29.3877C63.2295 29.5603 63.0731 29.7493 62.7196 29.9545C62.3776 30.1569 61.6353 30.521 60.4925 31.0467C60.4652 32.0133 60.4058 33.1272 60.3142 34.3886C60.2198 35.6384 60.2026 36.39 60.2624 36.6432Z" fill="#2C2C2C"/>
<path d="M68.0037 27.5919C68.5228 27.469 69.0642 27.6204 69.6278 28.0461C70.1887 28.4603 70.5195 28.8803 70.6202 29.3062C70.7181 29.7205 70.6746 30.1805 70.4896 30.6861C70.6689 30.826 70.7735 30.9592 70.8034 31.0858C70.8796 31.4081 70.9352 31.9783 70.9703 32.7965C71.0169 33.6119 71.0515 34.1445 71.074 34.3944C71.1081 34.6416 71.1312 34.8427 71.1435 34.9978C71.1531 35.1414 71.1569 35.2863 71.155 35.4326C71.1769 35.7313 71.107 35.8997 70.9455 35.938C70.7379 35.9871 70.5226 35.8497 70.2998 35.5256C70.0858 35.1874 69.8993 34.7332 69.7401 34.1632C69.0208 35.7068 68.2227 36.5823 67.3459 36.7899C66.8152 36.9154 66.2372 36.8152 65.6118 36.4892C64.9953 36.149 64.63 35.7372 64.5157 35.2538C64.3524 34.5632 64.4048 33.6514 64.673 32.5184C64.9384 31.3739 65.3811 30.309 66.0009 29.3238C66.6208 28.3385 67.2883 27.7612 68.0037 27.5919ZM69.5182 30.442C69.2651 29.3716 68.9251 28.8869 68.4982 28.988C68.0483 29.0945 67.5995 29.541 67.152 30.3275C66.7017 31.1025 66.3641 31.942 66.1393 32.8459C65.9144 33.7499 65.8578 34.4378 65.9694 34.9097C66.0156 35.1054 66.1345 35.2474 66.3259 35.3358C66.5147 35.4127 66.7186 35.4252 66.9379 35.3733C67.4801 35.245 68.0059 34.7377 68.5151 33.8515C69.0217 32.9538 69.2838 31.9498 69.3015 30.8397C69.2953 30.6588 69.3689 30.532 69.5222 30.4593L69.5182 30.442Z" fill="#2C2C2C"/>
<path d="M65.9694 42.4588C65.4748 42.5812 65.0852 42.9568 64.9227 43.4385C61.8243 52.6232 53.1465 59.2285 42.9385 59.2285C36.747 59.2285 31.1184 56.7985 26.9563 52.8368C26.5871 52.4855 26.0661 52.3345 25.5708 52.4571C24.53 52.7147 24.1354 53.9719 24.9059 54.7157C29.578 59.2259 35.9346 62 42.9385 62C54.4422 62 64.1995 54.5164 67.6154 44.148C67.9506 43.1307 67.0116 42.2009 65.9694 42.4588Z" fill="#BBF330"/>
<path d="M19.0303 32.9912C19.5939 32.8517 20.0117 32.3831 20.1152 31.8133C22.0846 20.9767 31.5611 12.7715 42.9385 12.7715C50.3374 12.7715 56.9324 16.2416 61.1816 21.6488C61.5401 22.105 62.1293 22.3246 62.6933 22.185C63.6441 21.9497 64.0743 20.8481 63.4751 20.0752C58.7228 13.9452 51.291 10 42.9385 10C30.1287 10 19.4844 19.2794 17.3501 31.4883C17.1818 32.4513 18.0789 33.2267 19.0303 32.9912Z" fill="#BBF330"/>
<path d="M82 18.6636C75.8607 30.4304 73.1656 22.6692 64.5234 27.2283C65.3878 13.5693 74.5409 21.8802 82 18.6636Z" fill="#BBF330"/>
<defs>
<filter id="filter0_d_1273_9" x="-24" y="-20" width="1328" height="120" filterUnits="userSpaceOnUse" color-interpolation-filters="sRGB">
<feFlood flood-opacity="0" result="BackgroundImageFix"/>
<feColorMatrix in="SourceAlpha" type="matrix" values="0 0 0 0 0 0 0 0 0 0 0 0 0 0 0 0 0 0 127 0" result="hardAlpha"/>
<feOffset dy="4"/>
<feGaussianBlur stdDeviation="12"/>
<feComposite in2="hardAlpha" operator="out"/>
<feColorMatrix type="matrix" values="0 0 0 0 0.411765 0 0 0 0 0.411765 0 0 0 0 0.411765 0 0 0 0.1 0"/>
<feBlend mode="normal" in2="BackgroundImageFix" result="effect1_dropShadow_1273_9"/>
<feBlend mode="normal" in="SourceGraphic" in2="effect1_dropShadow_1273_9" result="shape"/>
</filter>
</defs>
</svg>
